Coordinates
version=1
nRows=16
nColumns=42
inDegrees=yes

Units are S.I. units (second, meters, Newtons, ...)
If the header above contains a line with 'inDegrees', this indicates whether rotational values are in degrees (yes) or radians (no).

endheader
time	pelvis_tilt	pelvis_list	pelvis_rotation	pelvis_tx	pelvis_ty	pelvis_tz	hip_flexion_r	hip_adduction_r	hip_rotation_r	knee_angle_r	knee_adduction_r	knee_angle_r_beta	ankle_angle_r	subtalar_angle_r	mtp_angle_r	hip_flexion_l	hip_adduction_l	hip_rotation_l	knee_angle_l	knee_adduction_l	knee_angle_l_beta	ankle_angle_l	subtalar_angle_l	mtp_angle_l	lumbar_extension	lumbar_bending	lumbar_rotation	arm_flex_r	arm_add_r	arm_rot_r	elbow_flex_r	pro_sup_r	wrist_flex_r	wrist_dev_r	arm_flex_l	arm_add_l	arm_rot_l	elbow_flex_l	pro_sup_l	wrist_flex_l	wrist_dev_l
      1.16000000	     11.64125352	      0.38922867	     -4.75686336	     -0.25238510	      0.98633475	      0.26767323	      8.34239769	     -5.53730010	     -7.15919433	     46.46802661	      0.46017238	      0.81102006	     16.97645727	     -3.09953754	     -7.54462026	    -16.65091354	      3.93420341	     -9.63874500	      3.37482822	      2.63790785	      0.05890186	     14.94497807	     20.34533154	     -7.54462026	    -25.82773120	      1.48521465	     -4.30541436	     -9.18093481	    -10.29578581	      6.48531719	     30.91466062	     90.00000001	      0.00000000	      0.00000000	      2.31252225	    -13.81578756	     -4.45560788	     43.02205055	     90.00000001	      0.00000000	      0.00000000
      1.17000000	     11.47676982	      0.30290838	     -4.57028018	     -0.23890149	      0.98492674	      0.26773430	      9.36822628	     -5.19602344	     -7.09055573	     43.27141639	      0.93444492	      0.75522869	     16.85260295	     -3.27335940	     -7.54322038	    -17.61462646	      3.88165856	     -9.48911419	      2.89043911	      2.62917161	      0.05044768	     15.58073795	     20.71089214	     -7.54322038	    -25.66054644	      1.70279211	     -4.50503965	     -9.59611001	    -10.01356271	      6.26959720	     30.71940605	     90.00000001	      0.00000000	      0.00000000	      2.91702076	    -14.11540583	     -4.55992367	     43.86743335	     90.00000001	      0.00000000	      0.00000000
      1.18000000	     11.49983294	      0.12901184	     -4.39434904	     -0.22530075	      0.98350491	      0.26804577	      9.97633882	     -4.72063418	     -7.15735470	     39.66747455	      1.25849816	      0.69232804	     16.45236817	     -3.52404729	     -7.54111159	    -18.75768596	      3.70649137	     -9.50892790	      2.51649572	      2.65929213	      0.04392114	     16.14899237	     21.09960746	     -7.54111159	    -25.71028805	      1.96700173	     -4.62184206	    -10.01556452	     -9.70922114	      5.95056015	     30.59237913	     90.00000001	      0.00000000	      0.00000000	      3.56274277	    -14.39824344	     -4.66225528	     44.70195686	     90.00000001	      0.00000000	      0.00000000
      1.19000000	     11.39153004	      0.25672585	     -4.27345400	     -0.21177819	      0.98140572	      0.26816145	     10.71867977	     -4.66979453	     -7.23805019	     36.01154628	      1.63522116	      0.62852005	     16.28273023	     -3.09912217	     -7.53990151	    -19.67296418	      3.90114663	     -9.45313616	      2.24528044	      2.61173953	      0.03918754	     16.93333730	     21.52491655	     -7.53990151	    -25.58366492	      1.92264068	     -4.88393812	    -10.32994218	     -9.40493703	      5.76342926	     30.36214506	     90.00000001	      0.00000000	      0.00000000	      4.14006916	    -14.70764611	     -4.77803871	     45.52360001	     90.00000001	      0.00000000	      0.00000000
      1.20000000	     11.48269953	      0.15942568	     -4.14454126	     -0.19807468	      0.97937798	      0.26863184	     10.99657675	     -4.27128649	     -7.59545264	     31.93522107	      1.71030099	      0.55737476	     15.81808875	     -2.61229613	     -7.53812021	    -20.81551662	      3.79842659	     -9.57665899	      2.05432996	      2.64326153	      0.03585482	     17.60213575	     22.04193416	     -7.53812021	    -25.69510843	      2.06907322	     -5.00520174	    -10.67592566	     -9.08905371	      5.42336376	     30.24436632	     90.00000001	      0.00000000	      0.00000000	      4.75566513	    -14.99224441	     -4.86243909	     46.35836025	     90.00000001	      0.00000000	      0.00000000
      1.21000000	     11.49758655	      0.29588832	     -4.06283601	     -0.18442955	      0.97685803	      0.26904434	     11.30774612	     -4.18959330	     -7.87638728	     27.80544861	      1.89253555	      0.48529663	     15.44799859	     -1.68668703	     -7.53666945	    -21.81473294	      3.97327865	     -9.62219340	      1.93556468	      2.62368286	      0.03378198	     18.40714524	     22.50936144	     -7.53666945	    -25.70524346	      1.95959964	     -5.21539003	    -10.93927400	     -8.74975205	      5.17174039	     30.03751798	     90.00000001	      0.00000000	      0.00000000	      5.34415106	    -15.30200711	     -4.95644815	     47.15089187	     90.00000001	      0.00000000	      0.00000000
      1.22000000	     11.52497670	      0.40589868	     -3.97477818	     -0.17069728	      0.97410604	      0.26953138	     11.45543653	     -4.06590586	     -8.21092225	     23.49827343	      2.03032276	      0.41012224	     14.84591940	     -0.48664811	     -7.53511717	    -22.81116077	      4.08780108	     -9.70633404	      1.88554748	      2.64916493	      0.03290901	     19.18544485	     22.97838086	     -7.53511717	    -25.72694360	      1.87475691	     -5.42269950	    -11.19472875	     -8.41630457	      4.87297044	     29.89249049	     90.00000001	      0.00000000	      0.00000000	      5.91070192	    -15.60062368	     -5.01763007	     47.92177507	     90.00000001	      0.00000000	      0.00000000
      1.23000000	     11.55579079	      0.54996483	     -3.88555997	     -0.15688829	      0.97112059	      0.27011316	     11.47020874	     -3.97971303	     -8.49087210	     19.09727074	      2.19063014	      0.33331025	     14.09205495	      0.85528834	     -7.53336018	    -23.79612177	      4.22029896	     -9.78625491	      1.87589204	      2.67545072	      0.03274049	     19.96263158	     23.44442869	     -7.53336018	    -25.74481713	      1.74013992	     -5.63880068	    -11.43528747	     -8.06565352	      4.55349754	     29.77244415	     90.00000001	      0.00000000	      0.00000000	      6.45922630	    -15.90553783	     -5.06702422	     48.66283339	     90.00000001	      0.00000000	      0.00000000
      1.24000000	     11.55978718	      0.90858112	     -3.82943162	     -0.14307609	      0.96782821	      0.27050857	     11.49790872	     -4.19561717	     -8.65211998	     14.83840448	      2.44646169	      0.25897901	     13.45741222	      2.43668069	     -7.53210466	    -24.69870842	      4.64427226	     -9.74541206	      1.93845089	      2.58666680	      0.03383235	     20.71800260	     23.77929534	     -7.53210466	    -25.72231990	      1.38873743	     -5.92332947	    -11.60988771	     -7.72698248	      4.31915599	     29.58604161	     90.00000001	      0.00000000	      0.00000000	      6.99804934	    -16.18907520	     -5.13524281	     49.36229714	     90.00000001	      0.00000000	      0.00000000
      1.25000000	     11.54287066	      1.25070864	     -3.73357761	     -0.12910730	      0.96434815	      0.27092957	     11.48575142	     -4.40758816	     -8.79014852	     10.76353747	      2.69565334	      0.18785917	     12.61673092	      4.07008570	     -7.53086768	    -25.57524416	      5.00685799	     -9.70265809	      2.04114501	      2.52623198	      0.03562470	     21.44076404	     24.07103635	     -7.53086768	    -25.66402960	      1.06318378	     -6.22708566	    -11.79434777	     -7.39399253	      4.04558178	     29.45790756	     90.00000001	      0.00000000	      0.00000000	      7.50068344	    -16.46443701	     -5.17420584	     50.02349213	     90.00000001	      0.00000000	      0.00000000
      1.26000000	     11.47335924	      1.69736032	     -3.65244315	     -0.11508415	      0.96065685	      0.27130964	     11.58923467	     -4.77725870	     -8.91258836	      7.13180750	      2.97338029	      0.12447352	     11.78497886	      5.76050351	     -7.52984516	    -26.35874478	      5.49212177	     -9.58942273	      2.20872766	      2.42034692	      0.03854957	     22.12052932	     24.31060030	     -7.52984516	    -25.53903356	      0.63022844	     -6.57058362	    -11.94952967	     -7.06949089	      3.81268763	     29.35313730	     90.00000001	      0.00000000	      0.00000000	      7.96128397	    -16.72694911	     -5.20962282	     50.62315315	     90.00000001	      0.00000000	      0.00000000
      1.27000000	     11.35095356	      2.17176767	     -3.56911985	     -0.10096277	      0.95682998	      0.27167219	     11.89791102	     -5.20731161	     -9.16497837	      4.21410991	      3.22347770	      0.07355009	     11.03758775	      7.45280102	     -7.52904445	    -27.06010287	      5.99240061	     -9.44999927	      2.45417993	      2.30408375	      0.04283352	     22.74750357	     24.47232091	     -7.52904445	    -25.35650881	      0.17822869	     -6.90027690	    -12.10874389	     -6.76771630	      3.60962216	     29.27833894	     90.00000001	      0.00000000	      0.00000000	      8.40082252	    -16.94611604	     -5.24272853	     51.16744368	     90.00000001	      0.00000000	      0.00000000
      1.28000000	     11.10181780	      2.60246600	     -3.54997740	     -0.08678652	      0.95284935	      0.27191613	     12.59163419	     -5.68518319	     -9.55301103	      2.30503360	      3.64643809	      0.04023043	     10.55389306	      8.70648415	     -7.52879119	    -27.63039726	      6.48569134	     -9.33623254	      2.68565082	      2.16736490	      0.04687345	     23.27183548	     24.55907634	     -7.52879119	    -25.04255904	     -0.21518133	     -7.07750636	    -12.27824319	     -6.56705216	      3.54480977	     29.24358826	     90.00000001	      0.00000000	      0.00000000	      8.84949476	    -17.01888431	     -5.27142604	     51.61531379	     90.00000001	      0.00000000	      0.00000000
      1.29000000	     10.92797775	      3.09979024	     -3.48172791	     -0.07276800	      0.94915688	      0.27239470	     13.36512519	     -6.16627803	    -10.00853573	      1.18738705	      3.82004208	      0.02072381	     10.18036111	     10.38498680	     -7.52839572	    -28.14570313	      6.98333583	     -9.15778557	      3.19591568	      2.02043806	      0.05577925	     23.79797524	     24.57903431	     -7.52839572	    -24.85612761	     -0.69856245	     -7.44295949	    -12.31284619	     -6.30381622	      3.41785903	     29.23833945	     90.00000001	      0.00000000	      0.00000000	      9.19930145	    -17.24341109	     -5.35032555	     52.03391768	     90.00000001	      0.00000000	      0.00000000
      1.30000000	     10.74579695	      3.41505800	     -3.16951094	     -0.05807394	      0.94562449	      0.27267641	     14.43531276	     -6.62530138	    -12.65100715	      1.43450759	      4.03202852	      0.02503688	     11.36870405	     15.45124152	     -7.52674997	    -28.58796027	      7.11362081	     -9.64891225	      3.94676573	      1.89589198	      0.06888406	     24.34335094	     25.55517512	     -7.52674997	    -24.59367554	     -0.91319743	     -7.89896606	    -12.34078584	     -5.98518578	      2.89893761	     29.07539840	     90.00000001	      0.00000000	      0.00000000	      9.45884433	    -17.34518087	     -5.39610393	     52.35346108	     90.00000001	      0.00000000	      0.00000000
      1.31000000	     10.47843326	      3.58719476	     -3.01124983	     -0.04361191	      0.94227572	      0.27315483	     15.21195438	     -6.75569041	    -12.56677886	      1.26001348	      4.14812944	      0.02199138	     11.27177446	     15.81137556	     -7.52642748	    -28.96271693	      7.16160150	     -9.70667060	      4.63115376	      1.81572080	      0.08082888	     24.70549179	     25.60074268	     -7.52642748	    -24.30456253	     -1.00231681	     -8.15401151	    -12.35954760	     -5.84838399	      2.91452594	     29.05867909	     90.00000001	      0.00000000	      0.00000000	      9.72414261	    -17.38358888	     -5.47367674	     52.59556925	     90.00000001	      0.00000000	      0.00000000
